<?xml version="1.0" encoding="UTF-8"?>
<svg id="Layer_2" data-name="Layer 2" xmlns="http://www.w3.org/2000/svg" viewBox="0 0 226.69 743.22">
  <g id="Layer_1-2" data-name="Layer 1">
    <g>
      <path d="M123.26,138.83c-16.02,18.97-31.79,32.23-43.63,55.27-15.57,30.31-16.26,59.45-.44,89.92,1.32.31,1.55-.19,2.37-.92,3.76-3.3,8.57-10.36,12.26-14.23,28.77-30.17,57.22-59.67,77.3-96.83,15.76-29.15,23.21-59.02,20.15-92.45l2.39-.92c4.77,12.06,9.36,23.93,12.02,36.73,20.17,97.28-78.08,167.21-128.23,236.47-40.99,56.6-63.28,115.64-51.95,186.93,1.34,8.46,8.09,29.87,5.92,36.76-2.04,6.45-7.16-1.42-8.86-4.47C4.12,537.94-3.77,476.89,1.71,439.84c8.39-56.69,36.34-107.27,73.59-149.79l-16.49-28.71c-24.1-46.83-24.83-78.99,5.2-123.54,23.61-35.04,77.06-69.91,61.82-120.45-1.88-6.22-7.24-10.81-6.91-17.22,6.36-1.36,10.71,9.35,13.58,14.34,7.5,13.03,20.32,33.96,21.47,48.56,2.42,30.75-11.88,53.52-30.71,75.82Z"/>
      <path d="M209.74,237.67c5.87,14.47,12.02,28.77,14.9,44.27,12.93,69.56-37.86,128.65-78.75,178.1-59.5,71.93-106.26,140.24-89.14,239.64,1.84,10.67,8.74,28.1,8.98,37.46.06,2.4-1.25,3.67-1.74,5.82-2.4,1.64-6.87-4.74-8.02-6.54-12.08-19-23.66-64.98-25.99-87.58-5.41-52.53,12.83-111.33,40.29-155.59,50.72-81.77,151.44-146.68,136.67-255.6l2.8.02Z"/>
    </g>
  </g>
</svg>